<?xml version="1.0" standalone="no"?>
<!DOCTYPE svg PUBLIC "-//W3C//DTD SVG 20010904//EN"
 "http://www.w3.org/TR/2001/REC-SVG-20010904/DTD/svg10.dtd">
<svg version="1.0" xmlns="http://www.w3.org/2000/svg"
 width="4167.000000pt" height="4167.000000pt" viewBox="0 0 4167.000000 4167.000000"
 preserveAspectRatio="xMidYMid meet">
<metadata>
Created by potrace 1.14, written by Peter Selinger 2001-2017
</metadata>
<g transform="translate(0.000000,4167.000000) scale(0.100000,-0.100000)"
fill="#000000" stroke="none">
<path d="M20847 41573 c-1 -1 -74 -4 -162 -7 -430 -16 -601 -37 -886 -106
-571 -139 -1123 -449 -1549 -869 -380 -375 -612 -742 -830 -1316 -50 -132
-102 -267 -115 -300 -21 -55 -181 -474 -536 -1405 -77 -201 -143 -374 -148
-385 -5 -11 -32 -81 -59 -155 -45 -118 -177 -465 -334 -875 -27 -71 -63 -166
-79 -210 -16 -44 -33 -89 -38 -100 -6 -11 -71 -182 -146 -380 -75 -198 -152
-398 -170 -445 -18 -47 -46 -121 -63 -165 -94 -251 -255 -673 -263 -690 -5
-11 -56 -146 -114 -300 -58 -154 -110 -289 -115 -300 -5 -11 -53 -135 -106
-275 -53 -140 -105 -277 -116 -305 -11 -27 -26 -68 -34 -89 -41 -113 -297
-784 -305 -801 -5 -11 -68 -175 -140 -365 -72 -190 -180 -473 -240 -630 -61
-157 -112 -292 -114 -300 -4 -14 -238 -627 -252 -660 -3 -8 -7 -17 -7 -20 -1
-3 -16 -41 -33 -85 -39 -100 -136 -353 -243 -635 -44 -118 -85 -224 -90 -235
-4 -11 -54 -141 -110 -290 -101 -265 -148 -390 -195 -510 -13 -33 -60 -154
-103 -270 -44 -115 -112 -293 -152 -395 -39 -102 -73 -192 -75 -200 -5 -17
-233 -615 -269 -705 -13 -33 -52 -134 -86 -225 -34 -91 -70 -185 -80 -210 -11
-25 -76 -196 -145 -380 -70 -184 -130 -344 -135 -355 -5 -11 -25 -63 -45 -115
-20 -52 -49 -129 -65 -170 -16 -41 -65 -172 -110 -290 -45 -118 -97 -255 -117
-305 -19 -49 -46 -121 -60 -160 -14 -38 -31 -83 -38 -100 -7 -16 -68 -174
-135 -350 -66 -176 -123 -327 -127 -335 -3 -8 -7 -19 -9 -25 -6 -20 -75 -201
-84 -220 -6 -11 -21 -49 -34 -85 -30 -84 -124 -329 -135 -355 -5 -11 -68 -177
-141 -370 -72 -192 -136 -359 -141 -370 -4 -11 -38 -96 -73 -190 -35 -93 -124
-325 -196 -515 -73 -190 -145 -381 -162 -425 -17 -44 -45 -118 -63 -165 -18
-47 -47 -123 -65 -170 -53 -140 -101 -264 -110 -285 -5 -11 -41 -105 -80 -210
-39 -104 -75 -199 -79 -210 -5 -11 -23 -58 -41 -105 -18 -47 -43 -112 -55
-145 -13 -33 -51 -134 -85 -225 -34 -91 -68 -178 -75 -195 -13 -33 -18 -46
-136 -355 -45 -118 -92 -242 -105 -275 -12 -33 -41 -109 -64 -170 -24 -60 -53
-139 -66 -175 -13 -36 -28 -74 -33 -85 -5 -11 -31 -76 -57 -145 -69 -185 -106
-281 -160 -420 -27 -69 -49 -127 -49 -130 0 -3 -8 -24 -17 -45 -9 -22 -114
-296 -233 -610 -119 -313 -222 -583 -230 -600 -44 -100 -144 -449 -169 -590
-3 -16 -8 -41 -11 -55 -5 -25 -12 -72 -21 -145 -2 -22 -7 -53 -9 -70 -24 -155
-24 -535 0 -725 9 -66 27 -192 31 -215 31 -164 40 -202 91 -380 110 -384 313
-774 595 -1140 99 -129 284 -321 432 -449 334 -290 724 -513 1138 -650 106
-35 194 -60 289 -81 11 -2 28 -6 37 -9 9 -3 33 -8 52 -11 19 -3 67 -12 105
-20 39 -7 99 -17 135 -20 36 -4 78 -9 95 -11 63 -8 389 -25 500 -26 54 -1 209
11 228 17 7 2 30 7 52 10 33 5 95 18 185 40 326 80 854 314 1365 605 389 222
865 524 1375 873 129 89 240 165 245 170 9 7 232 164 315 222 49 34 484 348
651 470 135 99 556 411 1129 836 201 150 324 240 565 419 831 615 1564 1117
1945 1332 25 14 79 45 120 68 111 64 367 185 431 204 74 22 204 27 283 10 84
-17 143 -42 316 -129 325 -163 774 -444 1325 -830 306 -215 329 -231 703 -504
178 -130 337 -245 353 -256 15 -11 86 -63 156 -115 70 -52 209 -154 308 -228
99 -73 188 -139 198 -147 9 -8 22 -15 27 -15 6 0 10 -3 10 -7 0 -5 17 -19 38
-33 20 -14 39 -27 42 -30 3 -3 63 -48 135 -100 110 -81 207 -152 325 -240 19
-14 271 -197 405 -294 11 -8 68 -50 127 -93 58 -43 115 -84 125 -91 10 -7 110
-78 223 -158 113 -80 270 -191 350 -247 80 -55 168 -117 195 -136 86 -60 585
-393 690 -460 55 -35 129 -83 165 -106 63 -41 273 -170 308 -190 9 -5 73 -44
142 -84 267 -159 744 -411 910 -480 30 -13 73 -31 95 -41 130 -59 471 -181
537 -194 13 -2 50 -11 83 -19 111 -29 312 -53 405 -50 234 8 449 19 515 28 22
3 58 7 80 9 36 4 171 26 250 41 171 32 582 163 620 196 5 5 15 9 23 9 17 0
270 125 356 176 259 154 468 316 681 529 364 363 630 778 801 1251 29 81 97
307 109 364 26 121 55 278 60 325 3 33 8 69 10 80 9 43 18 216 19 340 0 195
-11 363 -35 515 -17 112 -20 125 -24 140 -2 8 -7 31 -10 50 -8 51 -33 150 -67
270 -32 112 -85 254 -468 1260 -133 349 -273 718 -312 820 -38 102 -92 241
-118 310 -88 231 -253 664 -300 790 -26 69 -80 211 -120 315 -40 105 -83 217
-95 250 -86 231 -378 996 -390 1023 -8 18 -15 36 -15 41 0 5 -8 26 -17 47 -9
22 -17 41 -18 44 -1 3 -5 12 -8 20 -3 8 -37 98 -76 200 -38 102 -101 268 -139
370 -39 102 -87 228 -106 280 -20 52 -40 104 -45 115 -5 11 -25 63 -44 115
-49 129 -163 431 -192 505 -13 33 -51 134 -85 225 -34 91 -66 174 -71 185 -4
11 -18 47 -30 80 -11 33 -29 79 -40 102 -10 24 -19 45 -19 48 0 6 -119 321
-199 530 -52 133 -131 341 -147 385 -7 19 -33 89 -59 155 -25 66 -62 163 -82
215 -19 52 -46 124 -60 160 -14 36 -54 139 -88 230 -138 367 -286 756 -295
775 -5 11 -36 94 -71 185 -34 91 -84 224 -111 295 -28 72 -70 182 -94 245 -23
63 -66 176 -95 250 -28 74 -60 158 -69 185 -10 28 -68 181 -130 340 -61 160
-127 333 -146 385 -20 52 -46 122 -59 155 -13 33 -139 364 -279 735 -141 371
-261 684 -266 695 -5 11 -29 74 -53 140 -25 66 -84 221 -131 345 -47 124 -108
286 -136 360 -28 74 -62 162 -75 195 -13 33 -62 164 -110 290 -47 127 -90 239
-95 250 -5 11 -23 58 -40 105 -18 47 -47 123 -65 170 -18 47 -57 148 -85 225
-29 77 -61 160 -70 185 -10 25 -27 72 -40 105 -12 33 -32 87 -45 120 -14 33
-47 121 -75 195 -28 74 -55 144 -59 155 -5 11 -14 36 -21 55 -7 19 -16 44 -20
55 -19 44 -60 152 -60 157 0 3 -8 23 -17 44 -9 22 -17 41 -18 44 -1 3 -4 12
-8 20 -3 8 -37 98 -75 200 -91 240 -404 1064 -827 2175 -76 198 -154 405 -175
460 -55 148 -210 557 -220 580 -9 21 -117 305 -335 880 -74 198 -140 369 -145
380 -8 18 -279 730 -357 940 -18 50 -36 97 -40 105 -3 8 -7 20 -9 25 -4 16
-104 278 -114 300 -5 11 -66 171 -136 355 -121 324 -163 432 -189 495 -7 17
-16 41 -20 55 -7 21 -41 97 -110 245 -36 76 -203 357 -238 400 -4 6 -35 46
-68 90 -144 189 -338 395 -499 529 -355 293 -730 500 -1172 646 -66 22 -130
42 -142 44 -11 3 -66 16 -121 30 -109 28 -345 72 -440 81 -33 4 -71 8 -84 10
-57 10 -448 25 -454 18z m824 -9937 c52 -3 105 -8 119 -10 14 -2 47 -7 73 -11
122 -17 268 -53 402 -101 160 -58 330 -144 505 -257 91 -59 105 -69 133 -92 7
-5 45 -37 86 -69 302 -241 575 -606 753 -1007 84 -188 169 -472 193 -647 3
-20 8 -47 10 -59 17 -78 24 -400 11 -548 -21 -260 -80 -513 -173 -745 -49
-123 -145 -316 -193 -387 -17 -24 -30 -46 -30 -49 0 -2 -30 -46 -66 -97 -225
-313 -497 -544 -827 -701 l-99 -47 24 -38 c43 -73 240 -396 295 -486 103 -169
288 -475 298 -493 6 -9 70 -116 144 -237 137 -225 269 -442 419 -690 47 -77
92 -151 101 -165 9 -14 21 -34 27 -45 6 -11 75 -126 154 -255 259 -425 299
-494 296 -498 -5 -4 -1676 -5 -1680 -1 -3 4 -259 423 -297 487 -9 15 -92 151
-184 302 -92 151 -205 336 -250 410 -137 225 -352 579 -492 808 -73 119 -160
262 -194 317 -74 123 -75 124 -125 204 l-41 66 -739 0 -739 0 -3 -1298 -2
-1297 -40 0 c-22 -1 -312 -1 -645 -1 -333 0 -653 0 -713 1 l-107 0 0 3866 c0
3642 1 3867 17 3873 23 8 3459 5 3579 -3z"/>
<path d="M19580 29069 l0 -1256 980 0 c1113 0 1082 -2 1255 77 153 70 330 233
424 390 91 152 169 362 187 503 3 23 9 56 13 73 5 16 9 104 9 195 1 252 -34
422 -128 624 -86 183 -200 328 -351 445 -107 82 -226 141 -355 177 l-99 27
-967 0 -968 1 0 -1256z"/>
<path d="M20868 14055 c-2 -1 -23 -5 -48 -9 -71 -9 -97 -15 -153 -37 -142 -56
-272 -158 -350 -277 -60 -90 -79 -135 -115 -273 -6 -23 -9 -2395 -9 -6368 0
-5087 2 -6346 12 -6399 37 -194 156 -368 325 -478 38 -24 72 -44 75 -44 4 0
21 -6 38 -14 82 -38 152 -50 277 -51 168 0 274 31 405 119 116 77 231 220 278
347 50 132 47 -279 46 6509 0 6593 2 6357 -37 6475 -19 58 -52 126 -83 173
-32 47 -157 175 -194 200 -63 40 -190 94 -255 108 -66 13 -204 26 -212 19z"/>
<path d="M16700 10813 c-86 -12 -152 -27 -199 -44 -119 -44 -241 -134 -323
-239 -37 -47 -98 -150 -102 -172 -1 -7 -10 -38 -20 -68 -9 -30 -20 -82 -23
-115 -4 -33 -7 -915 -7 -1960 0 -1584 2 -1912 13 -1973 8 -40 18 -75 23 -78 4
-3 8 -14 8 -24 0 -27 64 -145 111 -205 63 -82 169 -171 239 -201 8 -3 33 -14
55 -24 102 -45 273 -66 397 -47 222 34 447 202 538 402 40 87 59 152 66 227 4
40 7 926 7 1968 0 1434 -3 1911 -12 1959 -51 270 -239 480 -506 564 -71 23
-210 38 -265 30z"/>
<path d="M25059 10816 c-2 -2 -31 -6 -64 -9 -320 -31 -590 -301 -632 -630 -8
-66 -8 -3825 0 -3892 14 -107 71 -251 135 -334 42 -56 132 -142 188 -179 51
-34 173 -85 237 -99 333 -73 670 89 816 392 81 165 75 1 75 2175 0 2041 2
1969 -44 2096 -76 212 -261 385 -480 450 -63 19 -221 39 -231 30z"/>
</g>
</svg>
